<svg id="eWX2rDfHtk41" xmlns="http://www.w3.org/2000/svg" xmlns:xlink="http://www.w3.org/1999/xlink" viewBox="0 0 50 50" shape-rendering="geometricPrecision" text-rendering="geometricPrecision">
<style><![CDATA[
#eWX2rDfHtk42 {animation: eWX2rDfHtk42_c_o 3000ms linear infinite normal forwards}@keyframes eWX2rDfHtk42_c_o { 0% {opacity: 0} 23.333333% {opacity: 0} 26.666667% {opacity: 1} 100% {opacity: 1}} #eWX2rDfHtk43 {animation: eWX2rDfHtk43_s_do 3000ms linear infinite normal forwards}@keyframes eWX2rDfHtk43_s_do { 0% {stroke-dashoffset: 25.657606} 13.333333% {stroke-dashoffset: 25.657606;animation-timing-function: cubic-bezier(0.115,0.04,0.58,1)} 20% {stroke-dashoffset: 0} 100% {stroke-dashoffset: 0}} #eWX2rDfHtk44 {animation: eWX2rDfHtk44_c_o 3000ms linear infinite normal forwards}@keyframes eWX2rDfHtk44_c_o { 0% {opacity: 0} 40% {opacity: 0} 43.333333% {opacity: 1} 100% {opacity: 1}} #eWX2rDfHtk45 {animation: eWX2rDfHtk45_s_do 3000ms linear infinite normal forwards}@keyframes eWX2rDfHtk45_s_do { 0% {stroke-dashoffset: 12.414596} 30% {stroke-dashoffset: 12.414596;animation-timing-function: cubic-bezier(0.195,0.095,0.58,1)} 36.666667% {stroke-dashoffset: 0} 100% {stroke-dashoffset: 0}} #eWX2rDfHtk46 {animation: eWX2rDfHtk46_c_o 3000ms linear infinite normal forwards}@keyframes eWX2rDfHtk46_c_o { 0% {opacity: 0} 6.666667% {opacity: 0} 10% {opacity: 1} 100% {opacity: 1}} #eWX2rDfHtk47 {animation: eWX2rDfHtk47_s_do 3000ms linear infinite normal forwards}@keyframes eWX2rDfHtk47_s_do { 0% {stroke-dashoffset: 12.217703;animation-timing-function: cubic-bezier(0.1,0.015,0.58,1)} 6.666667% {stroke-dashoffset: 0} 100% {stroke-dashoffset: 0}} #eWX2rDfHtk48 {animation: eWX2rDfHtk48_s_do 3000ms linear infinite normal forwards}@keyframes eWX2rDfHtk48_s_do { 0% {stroke-dashoffset: 21.628794} 46.666667% {stroke-dashoffset: 21.628794;animation-timing-function: cubic-bezier(0.535,-0.05,0.58,1)} 56.666667% {stroke-dashoffset: 0} 100% {stroke-dashoffset: 0}} #eWX2rDfHtk49_tr {animation: eWX2rDfHtk49_tr__tr 3000ms linear infinite normal forwards}@keyframes eWX2rDfHtk49_tr__tr { 0% {transform: translate(25.044335px,22.16145px) rotate(0deg)} 66.666667% {transform: translate(25.044335px,22.16145px) rotate(0deg);animation-timing-function: cubic-bezier(0.275,0.02,0.58,1)} 70% {transform: translate(25.044335px,22.16145px) rotate(-11.329203deg);animation-timing-function: cubic-bezier(0.275,0.02,0.58,1)} 76.666667% {transform: translate(25.044335px,22.16145px) rotate(11.851175deg);animation-timing-function: cubic-bezier(0.275,0.02,0.58,1)} 83.333333% {transform: translate(25.044335px,22.16145px) rotate(-0.307651deg)} 100% {transform: translate(25.044335px,22.16145px) rotate(-0.307651deg)}} #eWX2rDfHtk49 {animation: eWX2rDfHtk49_c_o 3000ms linear infinite normal forwards}@keyframes eWX2rDfHtk49_c_o { 0% {opacity: 0} 60% {opacity: 0} 63.333333% {opacity: 1} 100% {opacity: 1}}
]]></style>
<path id="eWX2rDfHtk42" d="M17.0565,23.9772c2.0087,0,3.6371-1.6283,3.6371-3.637s-1.6284-3.6371-3.6371-3.6371-3.6371,1.6284-3.6371,3.6371s1.6284,3.637,3.6371,3.637Z" transform="translate(7.50001 7.49945)" opacity="0" fill="none" stroke="#10385b" stroke-width="2" stroke-linecap="round" stroke-linejoin="round" stroke-miterlimit="10"/><path id="eWX2rDfHtk43" d="M8.89523,34.0011c0-4.5242,3.63707-8.1613,8.16117-8.1613s8.1613,3.6371,8.1613,8.1613" transform="translate(7.50001 7.49945)" fill="none" stroke="#10385b" stroke-width="2" stroke-linecap="round" stroke-linejoin="round" stroke-miterlimit="10" stroke-dashoffset="25.657606" stroke-dasharray="25.657606"/><path id="eWX2rDfHtk44" d="M27.7903,24.1542c1.5188,0,2.75-1.2312,2.75-2.7499s-1.2312-2.75-2.75-2.75-2.75,1.2312-2.75,2.75s1.2312,2.7499,2.75,2.7499Z" transform="translate(7.50001 7.49945)" opacity="0" fill="none" stroke="#10385b" stroke-width="2" stroke-linecap="round" stroke-linejoin="round" stroke-miterlimit="10"/><path id="eWX2rDfHtk45" d="M25.2177,26.1944c.7983-.3549,1.6854-.5323,2.5725-.5323c3.4597,0,6.2096,2.75,6.2096,6.2096" transform="translate(7.50001 7.49945)" fill="none" stroke="#10385b" stroke-width="2" stroke-linecap="round" stroke-linejoin="round" stroke-miterlimit="10" stroke-dashoffset="12.414596" stroke-dasharray="12.414596"/><path id="eWX2rDfHtk46" d="M7.20975,24.1542c1.51877,0,2.74997-1.2312,2.74997-2.7499s-1.2312-2.75-2.74997-2.75-2.74997,1.2312-2.74997,2.75s1.2312,2.7499,2.74997,2.7499Z" transform="translate(7.50001 7.49945)" opacity="0" fill="none" stroke="#10385b" stroke-width="2" stroke-linecap="round" stroke-linejoin="round" stroke-miterlimit="10"/><path id="eWX2rDfHtk47" d="M1.00018,31.7838c0-3.4596,2.74998-6.2096,6.20962-6.2096.88709,0,1.68547.1774,2.39514.4436" transform="translate(7.50001 7.49945)" fill="none" stroke="#10385b" stroke-width="2" stroke-linecap="round" stroke-linejoin="round" stroke-miterlimit="10" stroke-dashoffset="12.217703" stroke-dasharray="12.217703"/><path id="eWX2rDfHtk48" d="M10.7581,14.662c0-.1774,0-.2661,0-.4436c0-3.7257,3.0161-6.74184,6.7419-6.74184s6.7419,3.01614,6.7419,6.74184" transform="translate(7.50001 7.49945)" fill="none" stroke="#04bbf2" stroke-width="2" stroke-linecap="round" stroke-linejoin="round" stroke-miterlimit="10" stroke-dashoffset="21.628794" stroke-dasharray="21.628794"/><g id="eWX2rDfHtk49_tr" transform="translate(25.044335,22.16145) rotate(0)"><path id="eWX2rDfHtk49" d="M30.8063,14.2176v-2.6613h-2.75c-.2661-1.0645-.7097-2.04025-1.2419-2.92734L28.766,6.76607L25.0402,3.0403L23.0886,4.9919c-.8871-.53226-1.8629-.9758-2.9274-1.24193v-2.74997h-5.2338v2.74997C13.8629,4.0161,12.8871,4.45964,12,4.9919L10.0484,3.0403L6.32265,6.76607l1.9516,1.9516c-.53226.88709-.9758,1.86293-1.24193,2.92743h-2.74997v3.2822" transform="translate(-17.544325,-14.662)" opacity="0" fill="none" stroke="#04bbf2" stroke-width="2" stroke-linecap="round" stroke-linejoin="round" stroke-miterlimit="10"/></g></svg>
